<?xml version="1.0" encoding="UTF-8" standalone="no"?>
<svg
   width="77.771004"
   height="58"
   viewBox="0 0 77.771004 58"
   fill="none"
   version="1.1"
   id="svg10"
   sodipodi:docname="logo.svg"
   inkscape:version="1.1.1 (3bf5ae0d25, 2021-09-20)"
   xmlns:inkscape="http://www.inkscape.org/namespaces/inkscape"
   xmlns:sodipodi="http://sodipodi.sourceforge.net/DTD/sodipodi-0.dtd"
   xmlns:xlink="http://www.w3.org/1999/xlink"
   xmlns="http://www.w3.org/2000/svg"
   xmlns:svg="http://www.w3.org/2000/svg">
  <defs
     id="defs14">
    <clipPath
       id="clip2">
      <path
         d="M 397,247 H 508 V 383 H 397 Z m 0,0"
         id="path5" />
    </clipPath>
    <clipPath
       id="clip3">
      <path
         d="m 430.69531,248.31641 c 2.70703,-11.10938 -32.72656,58.4375 -32.72656,58.4375 0,0 19.96875,71.9414 58.13281,75.33984 26.36719,2.34766 40.20703,-3.45703 51.0586,-10.77344 -39.55079,11 -96.60157,-40.32422 -76.46485,-123.0039 z m 0,0"
         id="path8" />
    </clipPath>
    <clipPath
       id="clip4">
      <path
         d="m 430.69531,248.31641 c 2.70703,-11.10938 -32.72656,58.4375 -32.72656,58.4375 0,0 19.96875,71.9414 58.13281,75.33984 26.36719,2.34766 40.20703,-3.45703 51.0586,-10.77344 -39.55079,11 -96.60157,-40.32422 -76.46485,-123.0039"
         id="path11" />
    </clipPath>
    <linearGradient
       inkscape:collect="always"
       xlink:href="#linearGradient2676-4-7"
       id="linearGradient2680"
       x1="326.60547"
       y1="274.40637"
       x2="388.23755"
       y2="368.42798"
       gradientUnits="userSpaceOnUse" />
    <linearGradient
       inkscape:collect="always"
       id="linearGradient2676-4-7">
      <stop
         style="stop-color:#00a6ff;stop-opacity:1"
         offset="0"
         id="stop2672" />
      <stop
         style="stop-color:#00ffff;stop-opacity:1"
         offset="1"
         id="stop2674" />
    </linearGradient>
    <clipPath
       id="clip5">
      <path
         d="M 326,166 H 537 V 383 H 326 Z m 0,0"
         id="path287" />
    </clipPath>
    <clipPath
       id="clip6">
      <path
         d="m 326.60547,217.29297 c 6.91406,-13.16406 20.90625,-16.59766 34.73437,-12.1875 13.69141,4.36719 18.71094,12.38281 20.65625,17.89062 7.20313,20.40625 20.53907,15.28907 27.52735,0.94141 C 425.5,191.14062 469.5,164.60156 536.10937,166.46484 454.20703,189.36719 417.67578,253.6875 426.80469,321.74219 c 4.85547,36.22265 40.80468,60.57812 40.80468,60.57812 0,0 -29.53125,2.57422 -58.10156,-16.11719 -49.14844,-30.98046 -44.4375,-124.60546 -82.90234,-148.91015 z m 0,0"
         id="path290" />
    </clipPath>
    <clipPath
       id="clip7">
      <path
         d="m 326.60547,217.29297 c 6.91406,-13.16406 20.90625,-16.59766 34.73437,-12.1875 13.69141,4.36719 18.71094,12.38281 20.65625,17.89062 7.20313,20.40625 20.53907,15.28907 27.52735,0.94141 C 425.5,191.14062 469.5,164.60156 536.10937,166.46484 454.20703,189.36719 417.67578,253.6875 426.80469,321.74219 c 4.85547,36.22265 40.80468,60.57812 40.80468,60.57812 0,0 -29.53125,2.57422 -58.10156,-16.11719 -49.14844,-30.98046 -44.4375,-124.60546 -82.90234,-148.91015"
         id="path293" />
    </clipPath>
    <radialGradient
       inkscape:collect="always"
       xlink:href="#linearGradient15630-3-3"
       id="radialGradient15619"
       cx="329.94531"
       cy="292.17953"
       fx="329.94531"
       fy="292.17953"
       r="83.800781"
       gradientTransform="matrix(1,0,0,0.9144662,0,24.991223)"
       gradientUnits="userSpaceOnUse" />
    <linearGradient
       inkscape:collect="always"
       id="linearGradient15630-3-3">
      <stop
         style="stop-color:#00a6ff;stop-opacity:1"
         offset="0"
         id="stop15626" />
      <stop
         style="stop-color:#004455;stop-opacity:1"
         offset="1"
         id="stop15628" />
    </linearGradient>
    <clipPath
       id="clip8">
      <path
         d="M 246,215 H 414 V 369 H 246 Z m 0,0"
         id="path741" />
    </clipPath>
    <radialGradient
       inkscape:collect="always"
       xlink:href="#linearGradient15630-3-3"
       id="radialGradient1617"
       gradientUnits="userSpaceOnUse"
       gradientTransform="matrix(1,0,0,0.9144662,0,24.991223)"
       cx="329.94531"
       cy="292.17953"
       fx="329.94531"
       fy="292.17953"
       r="83.800781" />
    <clipPath
       id="clip9">
      <path
         d="m 246.14453,223.83984 c 0,0 33.30078,-6.46093 61.41406,2.13282 9.25782,2.82812 17.44922,7.82031 24.70703,14.14453 20.15235,17.5664 20.13672,35.01172 38.46094,78.07812 11,25.85156 27.09375,41.34375 43.01953,50.61719 -10.46875,-6.91797 -20.5,-18.47656 -26.35937,-33.14453 -16.08594,-40.24219 -1.32813,-60.55469 -30.54688,-101.52344 -9.86718,-13.83594 -30.23437,-16.85156 -30.23437,-16.85156 -56.15625,-6.32031 -80.46094,6.54687 -80.46094,6.54687 z m 0,0"
         id="path744" />
    </clipPath>
    <radialGradient
       inkscape:collect="always"
       xlink:href="#linearGradient15630-3-3"
       id="radialGradient1615"
       gradientUnits="userSpaceOnUse"
       gradientTransform="matrix(1,0,0,0.9144662,0,24.991223)"
       cx="329.94531"
       cy="292.17953"
       fx="329.94531"
       fy="292.17953"
       r="83.800781" />
    <clipPath
       id="clip10">
      <path
         d="m 246.14453,223.83984 c 0,0 33.30078,-6.46093 61.41406,2.13282 9.25782,2.82812 17.44922,7.82031 24.70703,14.14453 20.15235,17.5664 20.13672,35.01172 38.46094,78.07812 11,25.85156 27.09375,41.34375 43.01953,50.61719 -10.46875,-6.91797 -20.5,-18.47656 -26.35937,-33.14453 -16.08594,-40.24219 -1.32813,-60.55469 -30.54688,-101.52344 -9.86718,-13.83594 -30.23437,-16.85156 -30.23437,-16.85156 -56.15625,-6.32031 -80.46094,6.54687 -80.46094,6.54687"
         id="path747" />
    </clipPath>
    <radialGradient
       inkscape:collect="always"
       xlink:href="#linearGradient15630-3-3"
       id="radialGradient1613"
       gradientUnits="userSpaceOnUse"
       gradientTransform="matrix(1,0,0,0.9144662,0,24.991223)"
       cx="329.94531"
       cy="292.17953"
       fx="329.94531"
       fy="292.17953"
       r="83.800781" />
    <clipPath
       id="clip11">
      <path
         d="m 423,373 h 3 v 2 h -3 z m 0,0"
         id="path941" />
    </clipPath>
    <clipPath
       id="clip12">
      <path
         d="m 425.57812,374.66406 c -0.4375,-0.22656 -0.98437,-0.46484 -1.66406,-0.70312 0.55469,0.24218 1.10938,0.47656 1.66406,0.70312 z m 0,0"
         id="path944" />
    </clipPath>
    <clipPath
       id="clip13">
      <path
         d="m 425.57812,374.66406 c -0.4375,-0.22656 -0.98437,-0.46484 -1.66406,-0.70312 0.55469,0.24218 1.10938,0.47656 1.66406,0.70312"
         id="path947" />
    </clipPath>
    <linearGradient
       inkscape:collect="always"
       xlink:href="#linearGradient2676-4-7"
       id="linearGradient144"
       gradientUnits="userSpaceOnUse"
       x1="326.60547"
       y1="274.40637"
       x2="388.23755"
       y2="368.42798" />
    <linearGradient
       inkscape:collect="always"
       xlink:href="#linearGradient2676-4-7"
       id="linearGradient146"
       gradientUnits="userSpaceOnUse"
       x1="326.60547"
       y1="274.40637"
       x2="388.23755"
       y2="368.42798" />
    <linearGradient
       inkscape:collect="always"
       xlink:href="#linearGradient2676-4-7"
       id="linearGradient148"
       gradientUnits="userSpaceOnUse"
       x1="326.60547"
       y1="274.40637"
       x2="388.23755"
       y2="368.42798" />
  </defs>
  <sodipodi:namedview
     id="namedview12"
     pagecolor="#ffffff"
     bordercolor="#666666"
     borderopacity="1.0"
     inkscape:pageshadow="2"
     inkscape:pageopacity="0.0"
     inkscape:pagecheckerboard="0"
     showgrid="false"
     width="114px"
     inkscape:zoom="4"
     inkscape:cx="22.125"
     inkscape:cy="32.125"
     inkscape:window-width="1920"
     inkscape:window-height="1028"
     inkscape:window-x="1280"
     inkscape:window-y="24"
     inkscape:window-maximized="1"
     inkscape:current-layer="svg10" />
  <g
     id="g182"
     transform="matrix(0.15554166,0,0,0.15554166,33.165212,34.565605)">
    <g
       clip-path="url(#clip2)"
       clip-rule="nonzero"
       id="g976"
       transform="matrix(1.724347,0,0,1.724347,-637.66256,-509.111)"
       style="fill:#00aad4">
      <g
         clip-path="url(#clip3)"
         clip-rule="nonzero"
         id="g974"
         style="fill:#00aad4">
        <g
           clip-path="url(#clip4)"
           clip-rule="nonzero"
           id="g972"
           style="fill:#00aad4">
          <path
             style="fill:#00aad4;fill-rule:nonzero;stroke:none"
             d="M 377.20703,240.19531 400.18359,399.83594 527.92187,381.45312 504.94531,221.8125 Z m 0,0"
             id="path970" />
        </g>
      </g>
    </g>
    <g
       clip-path="url(#clip5)"
       clip-rule="nonzero"
       id="g984"
       transform="matrix(1.724347,0,0,1.724347,-637.66256,-509.111)"
       style="fill:url(#linearGradient2680);fill-opacity:1">
      <g
         clip-path="url(#clip6)"
         clip-rule="nonzero"
         id="g982"
         style="fill:url(#linearGradient148);fill-opacity:1">
        <g
           clip-path="url(#clip7)"
           clip-rule="nonzero"
           id="g980"
           style="fill:url(#linearGradient146);fill-opacity:1">
          <path
             style="fill:url(#linearGradient144);fill-opacity:1;fill-rule:nonzero;stroke:none"
             d="M 587.83984,177.50391 338.875,115.40625 l -64,256.58594 248.96484,62.09765 z m 0,0"
             id="path978" />
        </g>
      </g>
    </g>
    <g
       clip-path="url(#clip8)"
       clip-rule="nonzero"
       id="g992"
       transform="matrix(1.724347,0,0,1.724347,-637.66256,-509.111)"
       style="fill:url(#radialGradient15619);fill-opacity:1">
      <g
         clip-path="url(#clip9)"
         clip-rule="nonzero"
         id="g990"
         style="fill:url(#radialGradient1617);fill-opacity:1">
        <g
           clip-path="url(#clip10)"
           clip-rule="nonzero"
           id="g988"
           style="fill:url(#radialGradient1615);fill-opacity:1">
          <path
             style="fill:url(#radialGradient1613);fill-opacity:1;fill-rule:nonzero;stroke:none"
             d="m 387.08984,149.67969 -198.67187,86.39453 84.38281,194.03125 198.66797,-86.39453 z m 0,0"
             id="path986" />
        </g>
      </g>
    </g>
    <g
       clip-path="url(#clip11)"
       clip-rule="nonzero"
       id="g1000"
       transform="matrix(1.724347,0,0,1.724347,-637.66256,-509.111)">
      <g
         clip-path="url(#clip12)"
         clip-rule="nonzero"
         id="g998">
        <g
           clip-path="url(#clip13)"
           clip-rule="nonzero"
           id="g996">
          <path
             style="fill:#8cc53d;fill-opacity:1;fill-rule:nonzero;stroke:none"
             d="m 425.3125,373.35156 -1.65625,0.71875 0.52344,1.20313 1.65625,-0.72266 z m 0,0"
             id="path994" />
        </g>
      </g>
    </g>
  </g>
</svg>
