<?xml version="1.0" encoding="UTF-8" standalone="no"?>
<!-- Created with Inkscape (http://www.inkscape.org/) -->

<svg
   width="128"
   height="128"
   id="svg2"
   version="1.1"
   inkscape:version="1.3.2 (091e20ef0f, 2023-11-25)"
   sodipodi:docname="flask.svg"
   xmlns:inkscape="http://www.inkscape.org/namespaces/inkscape"
   xmlns:sodipodi="http://sodipodi.sourceforge.net/DTD/sodipodi-0.dtd"
   xmlns="http://www.w3.org/2000/svg"
   xmlns:svg="http://www.w3.org/2000/svg"
   xmlns:rdf="http://www.w3.org/1999/02/22-rdf-syntax-ns#"
   xmlns:cc="http://creativecommons.org/ns#"
   xmlns:dc="http://purl.org/dc/elements/1.1/">
  <defs
     id="defs4">
    <inkscape:perspective
       sodipodi:type="inkscape:persp3d"
       inkscape:vp_x="0 : 474.18109 : 1"
       inkscape:vp_y="0 : 1000 : 0"
       inkscape:vp_z="744.09448 : 474.18109 : 1"
       inkscape:persp3d-origin="372.04724 : 298.78739 : 1"
       id="perspective10" />
    <inkscape:perspective
       id="perspective2824"
       inkscape:persp3d-origin="0.5 : -51.666667 : 1"
       inkscape:vp_z="1 : -51.5 : 1"
       inkscape:vp_y="0 : 1000 : 0"
       inkscape:vp_x="0 : -51.5 : 1"
       sodipodi:type="inkscape:persp3d" />
    <inkscape:perspective
       id="perspective2840"
       inkscape:persp3d-origin="0.5 : -51.666667 : 1"
       inkscape:vp_z="1 : -51.5 : 1"
       inkscape:vp_y="0 : 1000 : 0"
       inkscape:vp_x="0 : -51.5 : 1"
       sodipodi:type="inkscape:persp3d" />
    <inkscape:perspective
       id="perspective2878"
       inkscape:persp3d-origin="0.5 : -51.666667 : 1"
       inkscape:vp_z="1 : -51.5 : 1"
       inkscape:vp_y="0 : 1000 : 0"
       inkscape:vp_x="0 : -51.5 : 1"
       sodipodi:type="inkscape:persp3d" />
    <inkscape:perspective
       id="perspective2894"
       inkscape:persp3d-origin="0.5 : -51.666667 : 1"
       inkscape:vp_z="1 : -51.5 : 1"
       inkscape:vp_y="0 : 1000 : 0"
       inkscape:vp_x="0 : -51.5 : 1"
       sodipodi:type="inkscape:persp3d" />
    <inkscape:perspective
       id="perspective2910"
       inkscape:persp3d-origin="0.5 : -51.666667 : 1"
       inkscape:vp_z="1 : -51.5 : 1"
       inkscape:vp_y="0 : 1000 : 0"
       inkscape:vp_x="0 : -51.5 : 1"
       sodipodi:type="inkscape:persp3d" />
    <inkscape:perspective
       id="perspective2926"
       inkscape:persp3d-origin="0.5 : -51.666667 : 1"
       inkscape:vp_z="1 : -51.5 : 1"
       inkscape:vp_y="0 : 1000 : 0"
       inkscape:vp_x="0 : -51.5 : 1"
       sodipodi:type="inkscape:persp3d" />
    <inkscape:perspective
       id="perspective2976"
       inkscape:persp3d-origin="0.5 : -51.666667 : 1"
       inkscape:vp_z="1 : -51.5 : 1"
       inkscape:vp_y="0 : 1000 : 0"
       inkscape:vp_x="0 : -51.5 : 1"
       sodipodi:type="inkscape:persp3d" />
    <inkscape:perspective
       id="perspective3020"
       inkscape:persp3d-origin="0.5 : -51.666667 : 1"
       inkscape:vp_z="1 : -51.5 : 1"
       inkscape:vp_y="0 : 1000 : 0"
       inkscape:vp_x="0 : -51.5 : 1"
       sodipodi:type="inkscape:persp3d" />
    <inkscape:perspective
       id="perspective3036"
       inkscape:persp3d-origin="0.5 : -51.666667 : 1"
       inkscape:vp_z="1 : -51.5 : 1"
       inkscape:vp_y="0 : 1000 : 0"
       inkscape:vp_x="0 : -51.5 : 1"
       sodipodi:type="inkscape:persp3d" />
    <inkscape:perspective
       id="perspective3052"
       inkscape:persp3d-origin="0.5 : -51.666667 : 1"
       inkscape:vp_z="1 : -51.5 : 1"
       inkscape:vp_y="0 : 1000 : 0"
       inkscape:vp_x="0 : -51.5 : 1"
       sodipodi:type="inkscape:persp3d" />
    <inkscape:perspective
       id="perspective3866"
       inkscape:persp3d-origin="0.5 : -51.666667 : 1"
       inkscape:vp_z="1 : -51.5 : 1"
       inkscape:vp_y="0 : 1000 : 0"
       inkscape:vp_x="0 : -51.5 : 1"
       sodipodi:type="inkscape:persp3d" />
  </defs>
  <sodipodi:namedview
     id="base"
     pagecolor="#ffffff"
     bordercolor="#666666"
     borderopacity="1.0"
     inkscape:pageopacity="0.0"
     inkscape:pageshadow="2"
     inkscape:zoom="4"
     inkscape:cx="33.875"
     inkscape:cy="52.625"
     inkscape:document-units="px"
     inkscape:current-layer="layer1"
     showgrid="false"
     inkscape:window-width="1680"
     inkscape:window-height="1023"
     inkscape:window-x="1920"
     inkscape:window-y="0"
     inkscape:window-maximized="1"
     inkscape:showpageshadow="2"
     inkscape:pagecheckerboard="0"
     inkscape:deskcolor="#d1d1d1" />
  <metadata
     id="metadata7">
    <rdf:RDF>
      <cc:Work
         rdf:about="">
        <dc:format>image/svg+xml</dc:format>
        <dc:type
           rdf:resource="http://purl.org/dc/dcmitype/StillImage" />
      </cc:Work>
    </rdf:RDF>
  </metadata>
  <g
     inkscape:label="Layer 1"
     inkscape:groupmode="layer"
     id="layer1"
     transform="translate(-27.820801,-24.714976)">
    <path
       style="fill:#000000;stroke-width:0.631408"
       d="M 68.88746,133.22639 C 64.54461,129.39736 59.911991,125.72617 56.746363,120.55667 50.085311,111.44041 44.956615,100.88575 41.450431,89.794118 39.331181,82.581801 38.605373,74.849323 35.87338,67.9157 c -2.857939,-5.035928 0.489746,-10.541024 5.410628,-12.14179 2.190879,-0.471371 6.04313,-2.787866 1.393071,-1.13215 -4.168923,3.428708 -4.572384,-3.112325 -0.297477,-3.526512 2.917417,-0.4347 3.991388,-3.111951 2.993717,-5.522075 -3.131694,-2.289293 7.593917,-4.805268 2.19722,-8.221221 -5.621898,-6.799209 7.863833,-8.108074 4.536695,-0.386257 -0.79641,5.93776 9.423252,-1.088275 7.052051,5.76855 2.410069,3.292883 9.025083,0.749469 8.860974,5.369078 3.510843,0.270532 4.71577,3.581927 8.011528,3.836153 3.415716,1.729143 9.607867,3.091726 10.770177,7.40654 -3.388775,3.007469 -11.235992,-6.212261 -11.612985,2.112763 1.023703,12.297991 0.762901,24.966526 4.77677,36.67788 1.898536,7.091301 6.501064,12.673501 10.657646,18.196521 3.976988,5.40909 9.363993,9.21687 14.854685,12.42321 4.8165,2.54637 10.00924,4.23521 15.25841,5.29489 2.12909,-1.8255 5.88792,-8.61229 9.20926,-5.75044 0.15766,3.21559 -6.59225,6.72196 -0.31755,6.36656 3.68444,-1.24597 6.23996,3.19416 9.27401,-0.81082 2.79528,3.71161 11.61832,-2.37144 9.62944,5.21515 -2.68944,1.94507 -6.61181,0.76975 -9.30568,3.44549 -4.44144,-2.48672 -7.97747,2.2251 -12.89446,1.62921 -5.46055,1.09637 -11.01576,1.53895 -16.55188,1.54855 -9.08231,-0.80442 -18.356961,-1.14349 -26.997119,-4.68822 -4.867311,-1.58544 -9.617228,-4.69218 -13.895051,-7.80037 z m 7.670437,3.72555 c 4.752767,2.30402 9.400111,4.73231 14.608815,5.46478 8.263688,1.2884 16.797448,3.27012 25.090748,1.46242 -3.75345,-1.8999 -7.6339,0.74017 -11.37319,-1.35855 -4.48484,1.0818 -9.297582,-0.27559 -13.856923,-0.94386 -5.184738,-2.58888 -10.779956,-4.36905 -15.635252,-7.72945 -6.066884,-2.48405 3.137717,3.18561 4.776102,3.64481 3.792584,2.41313 -4.17061,-1.23705 -5.293243,-2.24019 -3.176512,-1.99744 -3.581328,-1.58008 -0.314551,0.44848 0.657976,0.4317 1.308177,0.88393 1.997494,1.25156 z m -9.043655,-7.16439 c 4.605572,1.91229 -0.02034,-3.63057 -2.130766,-3.30848 -0.935041,-1.81847 -3.572388,-2.96722 -1.711989,-3.94405 -3.3465,1.30233 -3.505607,-4.95242 -5.078623,-4.05878 -3.540314,-1.25315 -1.377892,-5.69238 -5.595026,-8.41851 -0.384944,-2.87258 -4.189905,-5.3641 -5.40352,-9.69694 -0.536001,-2.218407 -4.298778,-8.588915 -1.987297,-2.660184 1.96811,5.707394 5.430842,10.595104 8.312499,15.477214 2.237601,4.64835 4.879733,9.5064 8.954835,12.40616 1.373683,1.47716 2.700001,3.74053 4.639887,4.20357 z m -13.267686,-16.3292 c 0.16075,-0.77965 0.842316,1.68748 0,0 z m 18.783263,18.62157 c 1.019864,-0.51193 -1.466521,-0.64497 0,0 z m 2.500118,1.0223 c -0.258931,-1.41161 -1.141291,0.78934 0,0 z m 3.129407,1.46332 c 1.489882,-1.5902 -2.296049,-1.00265 0,0 z m 5.363611,3.35107 c 0.905348,-1.50007 -2.89755,-0.56611 0,0 z m -10.299588,-8.04843 c 2.314066,-1.6781 -2.988884,-0.0232 0,0 z m 2.347643,1.31223 c -0.06564,-0.88717 -0.83668,0.39732 0,0 z m 11.733263,8.20937 c 1.886175,1.33436 11.014574,2.92468 5.298542,0.54716 -0.956433,0.22599 -10.598927,-3.05734 -5.298542,-0.54716 z M 69.177314,123.12746 c -0.183389,-0.88974 -2.927743,-0.98231 0,0 z m 5.462266,3.56861 c 1.421553,-1.11143 -2.950543,-0.85725 0,0 z m 4.594529,3.15793 c 2.039941,-0.86214 -3.30926,-0.86619 0,0 z m -12.279453,-9.44012 c 2.213324,1.90272 8.926161,0.24381 3.389591,-1.13585 -2.51994,-1.50576 -8.19932,-2.53642 -4.328141,0.90799 l 0.938546,0.22781 z m 15.391342,10.53049 c 0.921948,-1.76077 -3.866204,-1.0055 0,0 z m -4.676957,-4.16671 c 5.412105,1.71619 -4.551094,-3.8366 -1.335323,-0.63153 l 0.712731,0.36156 0.622592,0.27 z m 9.376918,6.07529 c 5.125574,0.0548 -4.629584,-0.79209 0,0 z M 64.982522,117.08964 c -0.200195,-1.07024 -1.264863,0.0896 0,0 z m 30.733761,21.21524 c 0.136684,-1.93294 -1.672718,1.43834 0,0 z M 73.729494,123.09424 c -0.310017,-1.01783 -1.601513,-0.0415 0,0 z m -8.260879,-6.67609 c 2.942591,-0.19816 -4.028618,-1.45346 0,0 z m -9.786121,-7.09093 c -0.366253,-1.58127 -3.201994,-2.84245 0,0 z m 25.690879,18.2767 c -0.538953,-0.68902 -0.253517,0.15074 0,0 z m 15.990896,11.00019 c -0.0513,-1.05293 -0.870916,0.39855 0,0 z M 79.958178,125.96572 c 0.287842,-1.35663 -2.50914,-0.41075 0,0 z m -11.912963,-8.46333 c 2.18912,-0.26277 -3.506868,-1.659 0,0 z m 20.151877,14.03682 c 3.411441,-1.51503 -3.324961,-0.7396 0,0 z M 77.714943,123.5629 c 3.931682,0.56824 -4.678114,-2.99777 -0.862641,-0.31909 l 0.862641,0.31912 z m 13.664424,9.41839 c 3.670693,-2.45996 2.460521,5.76042 6.227535,0.69446 3.715848,-3.04135 -3.20894,3.76004 1.370663,0.54225 3.311945,-2.48308 8.203815,1.1771 11.294195,2.37135 2.22241,-0.12245 4.38288,2.15419 6.6612,0.76918 4.38577,-1.32418 -8.57626,-1.964 -5.17847,-4.31343 -4.01301,1.30927 -6.978,-1.56087 -8.95267,-4.44232 -4.501406,-1.16519 -9.706076,-3.74499 -11.952625,-8.21054 -0.915954,-1.67665 1.323229,0.2362 -0.790696,-2.5045 -2.712452,-2.70442 -4.066879,-5.77437 -5.887744,-9.0618 -2.175263,-1.30084 -2.428681,-5.12979 -2.648586,-0.12837 0.01728,-3.15647 -2.626337,-5.281 -3.271577,-4.39786 -0.01158,-3.03987 2.829115,-1.51611 0.840545,-3.76525 -0.428016,-3.150703 -1.837306,-6.433814 -2.260896,-9.991104 -0.658154,-1.714747 -0.09269,-5.387284 -2.246272,-1.505512 -0.784614,4.10245 -0.260419,-5.041437 0.95972,-2.026146 1.601495,-3.076833 -0.574952,-2.714963 -0.664113,-2.287722 1.043225,-2.596047 0.660292,-6.27839 -0.272201,-4.873607 0.555883,-2.751497 0.878192,-10.126291 -0.831987,-8.819387 1.03667,-2.877245 1.966019,-13.16572 -2.534309,-9.243059 -1.823884,0.02871 -4.982329,0.742179 -6.475315,1.574508 4.681142,2.892556 -0.470855,1.0446 -2.376389,0.584866 -0.248291,2.67648 -2.135686,1.518917 -4.493662,1.545155 3.76619,0.522333 -1.833964,4.317892 -3.994512,2.843525 -2.805945,1.503313 2.4216,5.255863 0.05629,6.416089 0.290686,1.749224 -4.298713,-0.631675 -3.938275,3.407879 -2.724029,-1.284575 -0.375089,4.791866 0.987739,2.736775 4.633066,1.405611 3.261566,4.610258 3.379552,7.654397 -0.754895,1.773831 -3.726962,-4.169443 -0.661926,-3.894187 -2.418079,-4.403312 -2.674823,-1.5916 -4.684167,0.453987 -0.467461,0.148566 5.125376,2.910536 1.615581,4.276265 3.087894,0.534108 3.175746,3.563222 3.804364,5.480025 1.855991,2.166998 1.47613,-2.392807 3.696891,0.211399 -1.40532,-2.320069 -7.443691,-6.536965 -2.58199,-5.184507 -0.026,-2.335049 -0.879283,-4.217982 0.61021,-4.172302 1.475023,-2.994442 -1.544807,7.383041 1.779977,3.577365 0.920356,-0.450496 1.148318,-2.998236 2.802629,0.240593 2.4028,2.649734 0.867904,4.569788 -2.521515,2.143566 0.606398,2.306006 4.534178,3.130083 3.796052,6.736233 0.782487,3.171686 1.877255,2.003496 2.831527,1.820126 0.748572,3.08166 1.173651,0.81565 1.20916,-0.650836 3.427511,0.822496 2.624673,3.093696 3.697121,4.680486 2.361839,1.19503 -3.380597,-8.100448 0.674283,-2.7951 4.26612,4.31766 1.599919,6.11999 -2.228522,5.42829 2.423097,-0.21945 3.204504,3.67217 6.235381,3.53545 2.763877,1.47391 4.635152,7.13496 -0.128891,4.77837 -1.652367,-1.67007 -7.499696,-3.73035 -2.723772,-0.55368 4.411035,2.28981 7.914424,3.65966 12.16869,6.53392 3.044638,2.4365 4.360028,5.22714 5.514002,5.77957 -2.55889,1.37009 -7.711485,-1.09408 -3.885378,-1.84923 -2.386448,-0.48732 -5.070613,-1.84014 -2.78478,1.49298 1.9437,1.81919 6.886242,1.62648 7.772271,1.83261 -0.751028,1.85504 -2.039977,2.00255 0.03082,2.14645 -2.310166,1.38005 0.740768,1.59375 0.954857,2.38231 z m -4.72408,-14.95456 c -1.405522,-1.64771 -1.768933,-4.73394 -0.249589,-2.04849 0.779128,0.35075 2.495905,5.04344 0.249615,2.04849 z m 15.384543,10.95485 c 0.87668,-0.0636 0.0255,0.74661 0,0 z M 84.436018,113.98662 c -0.05388,-2.49112 0.508396,1.92142 0,0 z m -1.529025,-2.30613 c -1.76789,-3.82915 2.228727,1.08441 0,0 z M 64.377608,97.344294 c 1.038624,-0.310499 0.510989,1.991248 0,0 z m 14.747017,8.960446 c 0.637848,-2.68511 0.749576,2.25297 0,0 z M 68.706306,98.184002 c -0.734446,-1.481671 1.536231,1.389604 0,0 z m 8.941128,3.212988 c -1.674883,-4.206427 1.185787,-2.297669 0.370554,0.68939 z M 62.228386,89.869981 c -0.748808,-1.380023 -1.987475,-5.429214 -1.588699,-6.66534 0.360761,2.01316 3.819052,8.663618 1.696394,2.754908 -2.345721,-4.95305 2.803978,1.607712 3.333695,2.843116 0.246669,1.228974 -1.447245,-0.335757 -0.299488,2.545879 -2.093115,-3.280823 -1.235642,1.812252 -3.141902,-1.478563 z m -4.765352,-3.6809 c 0.196166,-3.208735 1.090901,2.200281 0,0 z m 2.1435,0.827133 c 1.022866,-2.421895 1.734366,3.376333 0,0 z m -5.156242,-4.471321 c -1.774151,-1.976261 -3.058032,-3.798026 0.083,-1.226542 1.210305,0.0529 -2.688998,-4.142805 0.291473,-1.332375 3.134067,0.640582 1.547618,5.760385 -0.374482,2.558917 z m 2.708507,-0.07935 c 1.030303,-1.144506 0.546968,1.126641 0,0 z m 1.666586,0.598919 c -1.561981,-3.281989 1.895716,1.375944 0,0 z M 55.51232,79.515277 c -5.157602,-5.145204 6.480851,2.690435 0.842599,0.953904 l -0.842631,-0.95386 z m 14.777305,9.624646 c -2.23189,-1.500124 -0.591456,-10.560791 0.169655,-4.363938 2.16974,-0.786805 -0.119798,3.200345 1.49853,3.163447 -0.25504,2.515641 -0.979038,3.420062 -1.668194,1.200491 z m 5.465783,3.621219 c 0.218889,-2.730612 0.460685,1.866902 0,0 z m -0.949397,-1.05153 c 0.245732,-1.166532 0.02538,1.373709 0,0 z M 56.524068,77.824527 c -3.313414,-5.124576 9.629652,5.183723 2.122188,1.299787 -0.784474,-0.229995 -1.728382,-0.312111 -2.122188,-1.299787 z m 10.525261,6.25559 c -0.313555,-4.31498 0.700229,0.715252 -1.14e-4,-9e-6 z m 7.991112,5.746428 c 0.618414,-2.457902 0.04613,1.625961 0,0 z M 57.031643,75.868732 c 1.969291,-0.472165 8.161033,3.876953 2.475036,1.242306 -0.631783,-0.784026 -1.978611,-0.427803 -2.475036,-1.242306 z m 16.910889,9.448151 c 0.21049,-4.412192 1.175661,-2.635493 0.0071,0.631569 l -0.0071,-0.63156 -2.7e-5,-9e-6 z M 58.497551,74.33341 c 0.802379,-1.319381 -2.129985,-5.965166 0.422699,-1.666466 1.102998,0.982448 3.193581,1.645857 1.347788,2.05917 2.902938,2.870689 -0.708026,0.77788 -1.770487,-0.392704 z m 14.608559,9.605285 c 0.554334,-5.026163 0.488847,2.944691 0,0 z M 56.821766,69.691134 c 0.612885,-0.293612 0.323672,0.91542 0,0 z m 3.810528,2.542414 c 0.980667,-2.306719 1.80907,2.572633 0,0 z m 10.74856,6.702684 c -0.01033,-0.885914 0.202786,1.288654 0,0 z m -0.622627,-1.545199 c -1.491859,-4.125812 1.387701,2.184427 0,0 z m -0.916008,-2.705042 c -0.250417,-1.704834 0.851081,2.14182 -4.4e-5,-9e-6 z m 1.490764,-2.716504 c -1.023729,-2.022334 1.292778,-8.911978 1.551273,-4.639079 -1.080515,3.329352 -0.311701,5.191863 0.442079,0.72626 1.392012,-3.514473 -0.300693,6.935173 -1.99337,3.912836 z m 1.531991,-10.246044 c 0.446283,-0.614309 0.09905,0.740095 0,0 z m -2.558401,56.512097 c -0.606827,-0.59364 0.07624,0.37775 0,0 z m 5.270487,2.9887 c 2.931706,0.84323 2.916717,-0.51134 0.267063,-0.91376 -1.425187,-1.48621 -5.922157,-3.06261 -1.897147,-0.18448 0.266573,0.75693 1.108908,0.73928 1.630084,1.09815 z M 65.168039,113.4742 c 1.615094,1.3501 6.083621,3.82637 2.300875,0.51387 1.275374,-1.66103 -2.441109,-2.54517 -1.208269,-3.65627 -3.135775,-2.15097 -2.473687,-1.95963 -0.276778,-1.89196 -3.768641,-1.88829 0.543978,-1.74704 0.340918,-2.7146 -1.45316,-0.32173 -7.217815,-2.87235 -3.826495,0.20952 -3.447504,-1.97044 -0.821551,0.73402 -1.863561,0.4481 -3.525296,-1.07749 3.139484,3.0098 -0.559891,1.99516 2.022459,1.79663 5.443772,4.60199 0.855055,1.90129 -0.604602,0.97559 3.283732,2.45435 4.238146,3.1949 z m 5.512294,3.54988 c 6.702372,2.4211 -3.285969,-2.95789 0,0 z m 28.217708,19.16244 c 0.08648,-1.49057 -0.916044,1.27151 0,0 z m 2.900249,1.36828 c 1.54635,-1.67965 0.0632,2.67554 2.5623,-0.41117 0.027,-2.20974 -0.0769,-3.51493 -2.87187,-0.83066 -0.77046,0.47897 -1.11442,2.51553 0.30957,1.24183 z M 55.760015,105.14396 c -0.474915,-2.09271 -3.328863,-2.08187 0,0 z m 3.096926,2.27491 c -1.150023,-2.13751 -4.103283,-1.93515 0,0 z m 17.618546,11.91083 c 1.720145,1.71273 7.900379,1.25671 2.089246,0.21071 -0.860673,-1.4265 -5.465151,-1.08316 -2.089246,-0.21071 z m 24.219673,16.76731 c 2.64744,-2.49029 -2.565078,1.11095 0,0 z m 5.50609,4.2415 c 0.0165,-0.79914 -1.14115,0.34991 0,0 z m 0.009,-1.11881 c 2.93173,-3.48203 -2.84074,0.20592 -2e-5,0 z M 48.14294,97.995572 c -2.498725,-3.996537 -1.553277,-5.792946 -3.962907,-9.056169 -0.456165,-2.495416 -4.133787,-8.158019 -1.902144,-2.158938 2.044054,3.508591 2.651459,8.940905 5.865051,11.215107 z m 57.1472,40.117228 c 5.39367,-3.90795 -2.21399,-1.7023 0,0 z m 4.11734,1.80806 c 2.70099,-2.59962 -1.70852,-0.54371 0,0 z M 54.842046,100.72644 c 0.773006,-1.289153 -1.996407,-0.1649 0,0 z m 53.705744,37.95992 c 2.6152,-1.8902 -0.60254,-1.59997 -0.47401,0.17377 z M 73.055977,113.60931 c -0.08989,-1.27635 -1.381021,0.10834 0,0 z m 2.193387,1.41477 c -0.697075,-1.57982 -1.07176,0.24816 0,0 z m 37.494776,24.93965 c 3.35039,-2.70937 -2.03097,-0.51872 -0.70327,0.51332 z m -1.28296,-0.69511 c 2.72932,-2.56379 -2.88152,1.13616 0,0 z m 6.55498,4.89338 c 1.83251,-1.37591 -2.22631,-0.44507 0,0 z M 56.522687,99.796823 c 2.456393,0.616947 9.816354,6.781317 5.474284,0.426327 -2.223829,-0.73793 -0.890132,-6.831557 -3.158459,-5.753073 1.522498,2.851141 1.252637,4.064671 -1.943926,2.267193 -4.017577,-2.198419 -2.257761,1.089475 -1.472592,1.995624 -1.069984,0.272564 1.415302,1.041004 1.100693,1.063929 z m -11.19126,-9.907515 c 0.439761,-2.038899 -4.049189,-11.216826 -2.119748,-4.598796 0.696468,1.386311 0.625657,4.013655 2.119748,4.598796 z m 20.540769,14.195932 c -1.264878,-1.18579 -0.06012,-0.16782 0,0 z m 3.1148,0.81256 c -0.0018,-2.15982 -3.442957,-0.87706 0,0 z m 26.992226,19.07478 c -0.514817,-1.47567 -2.034962,-0.0342 4.5e-5,2e-5 z m 1.296198,1.0614 c -0.191368,-0.82592 -0.747831,0.15939 0,0 z m 10.69883,7.55424 c 1.02899,-0.85216 -1.28408,-0.10878 0,0 z M 50.921538,91.489093 c 2.943192,-1.277343 -3.153414,-0.910833 0,0 z m 42.681479,30.142767 c -0.03269,-2.1359 -1.876289,0.52988 0,0 z M 49.758689,88.451474 c 1.890567,-0.715867 -1.74893,-0.471506 0,0 z m 5.487444,2.979728 c -0.0343,-0.702026 -0.58046,0.265718 0,0 z M 122.1767,137.43937 c 2.43105,-0.55252 7.97101,1.3871 8.86643,-0.72257 -2.95227,-0.0802 -10.21411,-2.33486 -10.55769,0.53801 l 0.64628,0.11403 1.04498,0.0704 z M 56.990181,91.923887 c 0.04227,-2.164343 -1.505617,-0.08087 0,0 z M 42.562295,80.704728 c -0.655225,-4.123665 -2.492073,-0.624096 0,0 z m 3.440529,0.969428 c 0.04227,-1.324119 -3.149126,-1.191443 0,0 z m 1.966158,1.082474 c -0.568345,-0.516064 -0.444863,0.651938 0,0 z m 12.371364,8.896391 c 0.582417,-0.599782 -1.378859,-0.444261 0,0 z M 46.659426,80.315302 c -0.332546,-3.114578 -3.984891,-0.466652 0,0 z m -7.05363,-5.130499 c -0.100311,-1.437424 -0.687381,0.542231 0,0 z m 1.049201,-0.888229 c -0.171165,-1.704434 -0.900814,0.216858 0,0 z m 5.797112,3.878993 C 48.903447,77.096156 41.986995,75.94285 45.951231,77.971631 Z M 124.0374,131.89657 c 1.56896,-1.61251 -1.99409,-0.49856 0,0 z m 9.37283,5.44632 c 0.62875,-2.08484 -1.58307,0.27447 0,0 z M 47.044562,74.769505 c 0.258235,-2.016749 -1.943403,0.400452 0,0 z m -8.247883,-6.194556 c -0.443076,-2.847266 -0.38247,-7.845028 3.855562,-6.156044 -5.65707,1.259033 3.915318,7.881817 2.706502,2.652895 2.378667,0.130557 4.653217,-1.57587 3.404924,1.013737 4.686666,-0.580243 7.935867,-5.135917 12.462876,-4.497534 3.526323,-0.523107 7.381879,-0.919842 11.181941,-2.511035 3.124375,-0.252318 6.132006,-4.023146 4.41945,-6.258194 -4.260741,-0.404124 -8.720837,0.193469 -13.430142,1.242758 -5.218502,1.216101 -9.958659,3.526604 -15.224006,4.518381 -5.132227,0.772826 1.032302,2.12932 -0.437773,2.431528 -2.678074,1.041632 3.193809,1.744049 -0.347193,2.84213 -2.186855,-0.466113 -4.463093,-1.308401 -3.528966,-3.891757 -4.916223,0.715124 -9.236172,3.002371 -5.352058,8.610526 l 0.288879,0.0027 4e-6,-1.69e-4 z m 11.846312,-6.763198 c 1.152681,-4.760113 6.175465,3.916992 1.889306,0.632263 -0.511949,-0.429491 -1.353921,-0.779878 -1.889306,-0.632263 z m 0.224254,-2.307835 c 1.663648,-1.389338 0.884383,0.778922 0,0 z m 2.112441,0.03758 c 0.150191,-2.190364 4.835754,1.159567 0.772599,0.788509 z m 2.889632,-1.302389 c 1.055251,-1.382171 0.30332,1.229432 0,0 z m 0.739228,-0.554895 c 1.757108,-2.366676 9.950666,-1.510444 3.953264,-0.230763 -1.60752,-1.356653 -2.839755,0.799922 -3.953264,0.230763 z m 10.692783,-1.847691 c -0.267289,-6.464655 5.312257,2.297325 0,0 z m 3.03402,-0.0187 c 1.109238,-3.258261 4.304578,-1.307455 0.513303,-0.654744 0.08229,0.346729 -0.111177,1.682092 -0.513303,0.654744 z M 45.848157,73.097098 c 3.314302,-2.275093 -3.518503,-1.973812 0,0 z m 2.450581,0.763346 c 1.162019,-1.385073 -2.524912,-0.561797 0,0 z m -7.220552,-5.744478 c 1.89379,-1.630779 -2.241035,-0.620027 0,0 z M 138.94264,136.747 c 0.0547,-1.89201 -1.44748,0.85259 0,0 z m -9.94426,-7.60722 c 0.28277,-2.17832 -1.27792,0.18995 0,0 z m 12.67877,8.34082 c 2.64781,0.009 8.02265,-0.92177 2.26152,-0.91882 -0.90405,0.15803 -5.26773,0.12406 -2.2615,0.9188 z M 50.454316,72.525281 c 2.142883,-0.164988 3.352664,-2.649734 -0.414431,-2.506904 -5.838356,-0.677561 5.151082,2.240937 -0.748969,1.406439 -0.792785,0.588516 1.117346,1.263298 1.1634,1.100465 z m 1.887258,1.07079 c -0.223741,-1.542296 -0.662652,0.819321 0,0 z m 2.238681,-6.691738 c 0.929896,-1.292938 -1.286768,-0.345652 0,0 z M 47.453657,53.550651 c 3.824398,-1.458446 9.054204,-3.097273 10.859954,0.718104 -1.837744,-2.479463 -0.741641,-4.92035 0.994113,-1.295178 2.454373,3.667902 3.683082,-1.668264 2.086721,-2.898549 1.819184,2.533825 3.888307,3.731151 1.218027,0.160153 2.901716,-3.912751 -5.810184,0.512367 -7.790339,0.467807 -0.952728,0.479365 -9.836145,2.539603 -7.368476,2.847663 z m 2.241314,-4.811837 c 2.18109,-1.845369 7.543365,1.097688 4.102422,-1.833972 -0.336419,-0.333114 -7.535677,2.223118 -4.102422,1.833972 z m 7.951587,0.367998 c 2.552663,0.07302 -1.101075,-3.844134 1.940744,-2.06915 -0.499569,-1.829467 -3.54153,-2.171963 -5.028714,-2.902885 -0.841153,1.672651 1.712142,4.994517 3.08797,4.972035 z m -6.557303,-8.091309 c 0.883095,-1.341974 -1.547683,0.680345 0,0 z m 3.249926,0.871977 c 4.113628,-0.611623 -1.048578,-1.985842 -0.828913,-0.04914 l 0.828913,0.04914 v -8e-6 z m -6.068276,-5.322744 c -2.89645,-4.238499 5.447164,0.712481 2.504369,-3.725377 -2.476843,-2.210931 -4.85695,2.488051 -2.504369,3.725377 z m 37.171324,22.44381 c 1.328465,-2.639945 -5.484727,-3.558495 -0.895078,-0.935635 0.422566,0.158283 0.32693,1.118221 0.895078,0.935635 z"
       id="path2900" />
  </g>
</svg>
